<svg width="128" height="112" viewBox="0 0 128 112" fill="none" xmlns="http://www.w3.org/2000/svg">
<path d="M38.7058 40.693L63.0166 26.7358C63.6249 26.3864 64.3749 26.3864 64.9832 26.7358L89.2945 40.693C89.9024 41.0424 90.2779 41.6878 90.2779 42.3866V70.3009C90.2779 70.9992 89.9024 71.6451 89.2945 71.995L64.9832 85.9521C64.3749 86.3015 63.6249 86.3015 63.0166 85.9521L38.7058 71.995C38.0974 71.6456 37.7224 70.9997 37.7224 70.3009V42.3866C37.7229 41.6878 38.0979 41.0424 38.7058 40.693" fill="#8080F2"/>
<path d="M127.208 53.4073L98.1616 3.15711C97.1065 1.34021 95.1574 0 93.0476 0H34.9531C32.8428 0 30.8932 1.34021 29.8381 3.15711L0.791336 53.2964C-0.263779 55.1138 -0.263779 57.4074 0.791336 59.2248L29.8381 109.063C30.8932 110.88 32.8428 111.809 34.9531 111.809H93.0471C95.1569 111.809 97.1065 110.908 98.1611 109.091L127.208 59.1709C128.264 57.3545 128.264 55.2241 127.208 53.4073M103.156 77.571C103.156 78.3097 102.709 78.993 102.065 79.3629L65.0655 100.59C64.422 100.96 63.6159 100.96 62.9723 100.59L25.9444 79.3629C25.3009 78.993 24.8507 78.3102 24.8507 77.571V35.116C24.8507 34.3768 25.2944 33.6939 25.9384 33.3241L62.9362 12.0968C63.5797 11.727 64.3848 11.727 65.0284 12.0968L102.059 33.3241C102.703 33.6939 103.156 34.3768 103.156 35.116V77.571Z" fill="#4B32C3"/>
</svg>
