<svg width="128" height="128" viewBox="0 0 128 128" fill="none" xmlns="http://www.w3.org/2000/svg">
<g clip-path="url(#clip0_107_2099)">
<path opacity="0.5" d="M124.952 121.905H94.4761C92.7929 121.905 91.4285 123.269 91.4285 124.952C91.4285 126.636 92.7929 128 94.4761 128H124.952C126.635 128 128 126.636 128 124.952C128 123.269 126.635 121.905 124.952 121.905Z" fill="#CFD4D7"/>
<path opacity="0.5" d="M82.2858 121.905H45.7144C44.0312 121.905 42.6667 123.269 42.6667 124.952C42.6667 126.636 44.0312 128 45.7144 128H82.2858C83.969 128 85.3334 126.636 85.3334 124.952C85.3334 123.269 83.969 121.905 82.2858 121.905Z" fill="#CFD4D7"/>
<path d="M33.5238 121.905H3.04762C1.36447 121.905 0 123.269 0 124.952C0 126.636 1.36447 128 3.04762 128H33.5238C35.207 128 36.5714 126.636 36.5714 124.952C36.5714 123.269 35.207 121.905 33.5238 121.905Z" fill="#EA5E5E"/>
<path opacity="0.5" d="M124.952 109.714H100.571C98.8881 109.714 97.5237 111.079 97.5237 112.762C97.5237 114.445 98.8881 115.81 100.571 115.81H124.952C126.635 115.81 128 114.445 128 112.762C128 111.079 126.635 109.714 124.952 109.714Z" fill="#CFD4D7"/>
<path opacity="0.5" d="M88.3809 109.714H82.2857C80.6025 109.714 79.238 111.079 79.238 112.762C79.238 114.445 80.6025 115.81 82.2857 115.81H88.3809C90.064 115.81 91.4285 114.445 91.4285 112.762C91.4285 111.079 90.064 109.714 88.3809 109.714Z" fill="#CFD4D7"/>
<path opacity="0.5" d="M70.0953 109.714H45.7144C44.0312 109.714 42.6667 111.079 42.6667 112.762C42.6667 114.445 44.0312 115.81 45.7144 115.81H70.0953C71.7785 115.81 73.1429 114.445 73.1429 112.762C73.1429 111.079 71.7785 109.714 70.0953 109.714Z" fill="#CFD4D7"/>
<path d="M33.524 109.714H27.4287C25.7456 109.714 24.3811 111.079 24.3811 112.762C24.3811 114.445 25.7456 115.81 27.4287 115.81H33.524C35.2071 115.81 36.5716 114.445 36.5716 112.762C36.5716 111.079 35.2071 109.714 33.524 109.714Z" fill="#F7B93E"/>
<path d="M15.2381 109.714H3.04762C1.36447 109.714 0 111.079 0 112.762C0 114.445 1.36447 115.81 3.04762 115.81H15.2381C16.9212 115.81 18.2857 114.445 18.2857 112.762C18.2857 111.079 16.9212 109.714 15.2381 109.714Z" fill="#56B3B4"/>
<path opacity="0.5" d="M124.952 97.5238H70.0952C68.4121 97.5238 67.0476 98.8882 67.0476 100.571C67.0476 102.255 68.4121 103.619 70.0952 103.619H124.952C126.636 103.619 128 102.255 128 100.571C128 98.8882 126.636 97.5238 124.952 97.5238Z" fill="#CFD4D7"/>
<path opacity="0.5" d="M57.9048 97.5238H45.7144C44.0312 97.5238 42.6667 98.8882 42.6667 100.571C42.6667 102.255 44.0312 103.619 45.7144 103.619H57.9048C59.588 103.619 60.9525 102.255 60.9525 100.571C60.9525 98.8882 59.588 97.5238 57.9048 97.5238Z" fill="#CFD4D7"/>
<path d="M33.5238 97.5238H3.04762C1.36447 97.5238 0 98.8883 0 100.571C0 102.255 1.36447 103.619 3.04762 103.619H33.5238C35.207 103.619 36.5714 102.255 36.5714 100.571C36.5714 98.8883 35.207 97.5238 33.5238 97.5238Z" fill="#BF85BF"/>
<path opacity="0.5" d="M124.952 85.3334H112.762C111.079 85.3334 109.714 86.6978 109.714 88.381C109.714 90.0641 111.079 91.4286 112.762 91.4286H124.952C126.636 91.4286 128 90.0641 128 88.381C128 86.6978 126.636 85.3334 124.952 85.3334Z" fill="#CFD4D7"/>
<path opacity="0.5" d="M100.571 85.3334H88.3809C86.6977 85.3334 85.3333 86.6978 85.3333 88.381C85.3333 90.0641 86.6977 91.4286 88.3809 91.4286H100.571C102.254 91.4286 103.619 90.0641 103.619 88.381C103.619 86.6978 102.254 85.3334 100.571 85.3334Z" fill="#CFD4D7"/>
<path d="M76.1904 85.3334H21.3333C19.6501 85.3334 18.2856 86.6978 18.2856 88.381C18.2856 90.0641 19.6501 91.4286 21.3333 91.4286H76.1904C77.8736 91.4286 79.238 90.0641 79.238 88.381C79.238 86.6978 77.8736 85.3334 76.1904 85.3334Z" fill="#F7B93E"/>
<path d="M9.14286 85.3333H3.04762C1.36447 85.3333 0 86.6978 0 88.381C0 90.0641 1.36447 91.4286 3.04762 91.4286H9.14286C10.826 91.4286 12.1905 90.0641 12.1905 88.381C12.1905 86.6978 10.826 85.3333 9.14286 85.3333Z" fill="#BF85BF"/>
<path opacity="0.5" d="M124.952 73.1429H106.667C104.983 73.1429 103.619 74.5073 103.619 76.1905C103.619 77.8737 104.983 79.2381 106.667 79.2381H124.952C126.635 79.2381 128 77.8737 128 76.1905C128 74.5073 126.635 73.1429 124.952 73.1429Z" fill="#CFD4D7"/>
<path d="M94.4762 73.1429H76.1904C74.5073 73.1429 73.1428 74.5073 73.1428 76.1905C73.1428 77.8737 74.5073 79.2381 76.1904 79.2381H94.4762C96.1593 79.2381 97.5238 77.8737 97.5238 76.1905C97.5238 74.5073 96.1593 73.1429 94.4762 73.1429Z" fill="#BF85BF"/>
<path d="M64.0001 73.1429H39.6192C37.936 73.1429 36.5715 74.5073 36.5715 76.1905C36.5715 77.8737 37.936 79.2381 39.6192 79.2381H64.0001C65.6833 79.2381 67.0477 77.8737 67.0477 76.1905C67.0477 74.5073 65.6833 73.1429 64.0001 73.1429Z" fill="#EA5E5E"/>
<path d="M27.4286 73.1429H3.04762C1.36447 73.1429 0 74.5073 0 76.1905C0 77.8737 1.36447 79.2381 3.04762 79.2381H27.4286C29.1117 79.2381 30.4762 77.8737 30.4762 76.1905C30.4762 74.5073 29.1117 73.1429 27.4286 73.1429Z" fill="#56B3B4"/>
<path opacity="0.5" d="M124.952 60.9524H112.762C111.079 60.9524 109.714 62.3168 109.714 64C109.714 65.6831 111.079 67.0476 112.762 67.0476H124.952C126.636 67.0476 128 65.6831 128 64C128 62.3168 126.636 60.9524 124.952 60.9524Z" fill="#CFD4D7"/>
<path d="M100.571 60.9524H51.8096C50.1264 60.9524 48.762 62.3168 48.762 64C48.762 65.6831 50.1264 67.0476 51.8096 67.0476H100.571C102.255 67.0476 103.619 65.6831 103.619 64C103.619 62.3168 102.255 60.9524 100.571 60.9524Z" fill="#56B3B4"/>
<path d="M39.619 60.9524H21.3333C19.6501 60.9524 18.2856 62.3168 18.2856 64C18.2856 65.6831 19.6501 67.0476 21.3333 67.0476H39.619C41.3021 67.0476 42.6666 65.6831 42.6666 64C42.6666 62.3168 41.3021 60.9524 39.619 60.9524Z" fill="#F7B93E"/>
<path d="M9.14286 60.9523H3.04762C1.36447 60.9523 0 62.3168 0 64C0 65.6831 1.36447 67.0476 3.04762 67.0476H9.14286C10.826 67.0476 12.1905 65.6831 12.1905 64C12.1905 62.3168 10.826 60.9523 9.14286 60.9523Z" fill="#EA5E5E"/>
<path opacity="0.5" d="M124.952 48.7619H118.857C117.174 48.7619 115.81 50.1264 115.81 51.8095C115.81 53.4927 117.174 54.8571 118.857 54.8571H124.952C126.636 54.8571 128 53.4927 128 51.8095C128 50.1264 126.636 48.7619 124.952 48.7619Z" fill="#CFD4D7"/>
<path d="M106.667 48.7619H76.1904C74.5073 48.7619 73.1428 50.1264 73.1428 51.8095C73.1428 53.4927 74.5073 54.8571 76.1904 54.8571H106.667C108.35 54.8571 109.714 53.4927 109.714 51.8095C109.714 50.1264 108.35 48.7619 106.667 48.7619Z" fill="#F7B93E"/>
<path opacity="0.5" d="M64.0001 48.7619H45.7144C44.0312 48.7619 42.6667 50.1264 42.6667 51.8095C42.6667 53.4927 44.0312 54.8571 45.7144 54.8571H64.0001C65.6832 54.8571 67.0477 53.4927 67.0477 51.8095C67.0477 50.1264 65.6832 48.7619 64.0001 48.7619Z" fill="#CFD4D7"/>
<path d="M33.5238 48.7619H3.04762C1.36447 48.7619 0 50.1264 0 51.8095C0 53.4927 1.36447 54.8571 3.04762 54.8571H33.5238C35.207 54.8571 36.5714 53.4927 36.5714 51.8095C36.5714 50.1264 35.207 48.7619 33.5238 48.7619Z" fill="#BF85BF"/>
<path opacity="0.5" d="M124.952 36.5715H118.857C117.174 36.5715 115.81 37.9359 115.81 39.6191C115.81 41.3022 117.174 42.6667 118.857 42.6667H124.952C126.636 42.6667 128 41.3022 128 39.6191C128 37.9359 126.636 36.5715 124.952 36.5715Z" fill="#CFD4D7"/>
<path d="M106.667 36.5715H76.1904C74.5073 36.5715 73.1428 37.9359 73.1428 39.6191C73.1428 41.3022 74.5073 42.6667 76.1904 42.6667H106.667C108.35 42.6667 109.714 41.3022 109.714 39.6191C109.714 37.9359 108.35 36.5715 106.667 36.5715Z" fill="#EA5E5E"/>
<path opacity="0.5" d="M64.0001 36.5715H45.7144C44.0312 36.5715 42.6667 37.9359 42.6667 39.6191C42.6667 41.3022 44.0312 42.6667 45.7144 42.6667H64.0001C65.6832 42.6667 67.0477 41.3022 67.0477 39.6191C67.0477 37.9359 65.6832 36.5715 64.0001 36.5715Z" fill="#CFD4D7"/>
<path d="M33.524 36.5715H27.4287C25.7456 36.5715 24.3811 37.9359 24.3811 39.6191C24.3811 41.3022 25.7456 42.6667 27.4287 42.6667H33.524C35.2071 42.6667 36.5716 41.3022 36.5716 39.6191C36.5716 37.9359 35.2071 36.5715 33.524 36.5715Z" fill="#56B3B4"/>
<path d="M15.2381 36.5714H3.04762C1.36447 36.5714 0 37.9359 0 39.6191C0 41.3022 1.36447 42.6667 3.04762 42.6667H15.2381C16.9212 42.6667 18.2857 41.3022 18.2857 39.6191C18.2857 37.9359 16.9212 36.5714 15.2381 36.5714Z" fill="#F7B93E"/>
<path opacity="0.5" d="M124.952 24.381H112.762C111.079 24.381 109.714 25.7455 109.714 27.4286C109.714 29.1118 111.079 30.4762 112.762 30.4762H124.952C126.636 30.4762 128 29.1118 128 27.4286C128 25.7455 126.636 24.381 124.952 24.381Z" fill="#CFD4D7"/>
<path d="M100.571 24.381H94.4761C92.7929 24.381 91.4285 25.7455 91.4285 27.4286C91.4285 29.1118 92.7929 30.4762 94.4761 30.4762H100.571C102.254 30.4762 103.619 29.1118 103.619 27.4286C103.619 25.7455 102.254 24.381 100.571 24.381Z" fill="#56B3B4"/>
<path d="M82.2857 24.381H57.9048C56.2216 24.381 54.8572 25.7455 54.8572 27.4286C54.8572 29.1118 56.2216 30.4762 57.9048 30.4762H82.2857C83.9689 30.4762 85.3334 29.1118 85.3334 27.4286C85.3334 25.7455 83.9689 24.381 82.2857 24.381Z" fill="#BF85BF"/>
<path d="M45.7143 24.381H3.04762C1.36447 24.381 0 25.7455 0 27.4286C0 29.1118 1.36447 30.4762 3.04762 30.4762H45.7143C47.3974 30.4762 48.7619 29.1118 48.7619 27.4286C48.7619 25.7455 47.3974 24.381 45.7143 24.381Z" fill="#56B3B4"/>
<path opacity="0.5" d="M124.952 12.1905H106.667C104.983 12.1905 103.619 13.5549 103.619 15.2381C103.619 16.9212 104.983 18.2857 106.667 18.2857H124.952C126.635 18.2857 128 16.9212 128 15.2381C128 13.5549 126.635 12.1905 124.952 12.1905Z" fill="#CFD4D7"/>
<path d="M94.4763 12.1905H33.5239C31.8408 12.1905 30.4763 13.5549 30.4763 15.2381C30.4763 16.9212 31.8408 18.2857 33.5239 18.2857H94.4763C96.1595 18.2857 97.5239 16.9212 97.5239 15.2381C97.5239 13.5549 96.1595 12.1905 94.4763 12.1905Z" fill="#F7B93E"/>
<path d="M21.3333 12.1905H3.04762C1.36447 12.1905 0 13.5549 0 15.2381C0 16.9212 1.36447 18.2857 3.04762 18.2857H21.3333C23.0165 18.2857 24.381 16.9212 24.381 15.2381C24.381 13.5549 23.0165 12.1905 21.3333 12.1905Z" fill="#EA5E5E"/>
<path opacity="0.5" d="M124.952 0H88.3809C86.6977 0 85.3333 1.36447 85.3333 3.04762C85.3333 4.73077 86.6977 6.09524 88.3809 6.09524H124.952C126.635 6.09524 128 4.73077 128 3.04762C128 1.36447 126.635 0 124.952 0Z" fill="#CFD4D7"/>
<path d="M76.1905 0H3.04762C1.36447 0 0 1.36447 0 3.04762C0 4.73077 1.36447 6.09524 3.04762 6.09524H76.1905C77.8736 6.09524 79.2381 4.73077 79.2381 3.04762C79.2381 1.36447 77.8736 0 76.1905 0Z" fill="#56B3B4"/>
</g>
<defs>
<clipPath id="clip0_107_2099">
<rect width="128" height="128" fill="white"/>
</clipPath>
</defs>
</svg>
