<svg width="128" height="128" viewBox="0 0 128 128" fill="none" xmlns="http://www.w3.org/2000/svg">
<path d="M74.7714 61.1304H48.7622V73.6062H74.1459C75.647 73.6062 77.0218 72.983 78.1464 71.9846C79.1471 70.9861 79.7726 69.4896 79.7726 67.6179C79.8087 66.0116 79.3262 64.4365 78.3966 63.1261C77.3959 61.8798 76.2713 61.1304 74.7714 61.1304ZM75.647 46.0357C76.7716 45.2863 77.272 43.6647 77.272 41.5439C77.272 39.6721 76.7716 38.3007 75.896 37.4274C75.0204 36.678 73.8946 36.1799 72.6449 36.1799H48.7622V47.4071H72.1445C73.3954 47.4071 74.6463 46.7839 75.647 46.0357Z" fill="#09B3AF"/>
<path d="M113.784 0H15.6267C12.5018 0 10 2.49493 10 5.48908V103.548C10 106.542 12.5018 108.414 15.5016 108.414H30.0061V128L48.0119 108.539H113.784C116.785 108.539 118.66 106.667 118.66 103.548V5.61416C118.66 2.62002 116.784 0.125088 113.659 0.125088L113.784 0ZM97.2783 79.4694C96.0274 81.7153 94.1522 83.5859 91.9018 84.9596C89.5251 86.4561 86.8994 87.8286 83.8984 88.4518C80.8974 89.2012 77.6474 89.8244 74.2712 89.8244H30.0061V19.9606H80.2731C82.7738 19.9606 84.8991 20.4609 86.8994 21.5833C88.7757 22.5806 90.5269 23.9532 91.9018 25.5748C94.702 28.9808 96.2077 33.2674 96.1525 37.6764C96.1525 40.9196 95.2768 44.0388 93.6518 47.033C91.9648 50.0461 89.3266 52.4152 86.15 53.7695C90.1505 54.893 93.2766 56.8888 95.6533 59.7578C97.9037 62.752 99.0283 66.6195 99.0283 71.4854C99.0283 74.6046 98.4029 77.2246 97.1532 79.4694H97.2783Z" fill="#09B3AF"/>
</svg>
